{
  "source": "C:\\Users\\Peter\\Desktop\\stuff\\MIUN\\quantitative_research\\video_compression\\videos\\BVI-HD\\BVI-HD_CDVL_videos\\ORIG\\BallUnderWater_1920x1080_60fps.mp4",
  "output": "C:\\Users\\Peter\\Desktop\\stuff\\MIUN\\quantitative_research\\video_compression\\compressed_videos\\BVI-HD\\av1\\1\\BallUnderWater_1920x1080_60fps_av1.mkv",
  "codec": "av1",
  "ok": "Input #0, mov,mp4,m4a,3gp,3g2,mj2, from 'C:\\Users\\Peter\\Desktop\\stuff\\MIUN\\quantitative_research\\video_compression\\videos\\BVI-HD\\BVI-HD_CDVL_videos\\ORIG\\BallUnderWater_1920x1080_60fps.mp4':\n  Metadata:\n    major_brand     : isom\n    minor_version   : 512\n    compatible_brands: isomiso2avc1mp41\n    encoder         : Lavf54.28.101\n  Duration: 00:00:05.00, start: 0.000000, bitrate: 212030 kb/s\n  Stream #0:0[0x1](und): Video: h264 (High 4:4:4 Predictive) (avc1 / 0x31637661), yuv420p(progressive), 1920x1080, 212025 kb/s, 60 fps, 60 tbr, 60 tbn (default)\n    Metadata:\n      handler_name    : VideoHandler\n      vendor_id       : [0][0][0][0]\n[out#0/matroska @ 000001e40ec0a0c0] Codec AVOption b:a (set bitrate (in bits/s)) has not been used for any stream. The most likely reason is either wrong type (e.g. a video option with no video streams) or that it is a private option of some decoder which was not actually used for any stream.\nStream mapping:\n  Stream #0:0 -> #0:0 (h264 (native) -> av1 (libsvtav1))\nPress [q] to stop, [?] for help\nSvt[info]: -------------------------------------------\nSvt[info]: SVT [version]:\tSVT-AV1 Encoder Lib v3.1.0-19-g6ecfe8ec\nSvt[info]: SVT [build]  :\tGCC 15.2.0\t 64 bit\nSvt[info]: LIB Build date: Aug 17 2025 11:37:13\nSvt[info]: -------------------------------------------\nSvt[info]: Level of Parallelism: 5\nSvt[info]: Number of PPCS 93\nSvt[info]: [asm level on system : up to avx2]\nSvt[info]: [asm level selected : up to avx2]\nSvt[info]: -------------------------------------------\nSvt[info]: SVT [config]: main profile\ttier (auto)\tlevel (auto)\nSvt[info]: SVT [config]: width / height / fps numerator / fps denominator \t\t: 1920 / 1080 / 60 / 1\nSvt[info]: SVT [config]: bit-depth / color format \t\t\t\t\t: 8 / YUV420\nSvt[info]: SVT [config]: preset / tune / pred struct \t\t\t\t\t: 4 / PSNR / random access\nSvt[info]: SVT [config]: gop size / mini-gop size / key-frame type \t\t\t: 321 / 16 / key frame\nSvt[info]: SVT [config]: BRC mode / target bitrate (kbps)\t\t\t\t: VBR / 1000 \nSvt[info]: SVT [config]: AQ mode / Variance Boost \t\t\t\t\t: 2 / 0\nSvt[info]: SVT [config]: sharpness / luminance-based QP bias \t\t\t\t: 0 / 0\nSvt[info]: SVT [config]: QP scale compress strength \t\t\t\t\t: 0\nSvt[info]: -------------------------------------------\nOutput #0, matroska, to 'C:\\Users\\Peter\\Desktop\\stuff\\MIUN\\quantitative_research\\video_compression\\compressed_videos\\BVI-HD\\av1\\1\\BallUnderWater_1920x1080_60fps_av1.mkv':\n  Metadata:\n    major_brand     : isom\n    minor_version   : 512\n    compatible_brands: isomiso2avc1mp41\n    encoder         : Lavf62.3.100\n  Stream #0:0(und): Video: av1 (AV01 / 0x31305641), yuv420p(tv, progressive), 1920x1080, q=2-31, 1000 kb/s, 60 fps, 1k tbn (default)\n    Metadata:\n      encoder         : Lavc62.11.100 libsvtav1\n      handler_name    : VideoHandler\n      vendor_id       : [0][0][0][0]\n    Side data:\n      cpb: bitrate max/min/avg: 0/0/1000000 buffer size: 1000000 vbv_delay: N/A\nframe=    0 fps=0.0 q=0.0 size=       0KiB time=N/A bitrate=N/A speed=N/A elapsed=0:00:01.93    \nframe=    0 fps=0.0 q=0.0 size=       0KiB time=N/A bitrate=N/A speed=N/A elapsed=0:00:02.91    \nframe=    0 fps=0.0 q=0.0 size=       0KiB time=N/A bitrate=N/A speed=N/A elapsed=0:00:03.42    \nframe=    0 fps=0.0 q=0.0 size=       0KiB time=N/A bitrate=N/A speed=N/A elapsed=0:00:03.93    \nframe=    0 fps=0.0 q=0.0 size=       0KiB time=N/A bitrate=N/A speed=N/A elapsed=0:00:04.45    \nframe=    0 fps=0.0 q=0.0 size=       0KiB time=N/A bitrate=N/A speed=N/A elapsed=0:00:04.96    \nframe=    0 fps=0.0 q=0.0 size=       0KiB time=N/A bitrate=N/A speed=N/A elapsed=0:00:05.48    \nframe=    0 fps=0.0 q=0.0 size=       0KiB time=N/A bitrate=N/A speed=N/A elapsed=0:00:06.00    \nframe=    0 fps=0.0 q=0.0 size=       0KiB time=N/A bitrate=N/A speed=N/A elapsed=0:00:06.52    \nframe=    0 fps=0.0 q=0.0 size=       0KiB time=N/A bitrate=N/A speed=N/A elapsed=0:00:07.03    \nframe=    0 fps=0.0 q=0.0 size=       0KiB time=N/A bitrate=N/A speed=N/A elapsed=0:00:07.54    \nframe=    1 fps=0.1 q=31.0 size=       1KiB time=00:00:00.00 bitrate=N/A speed=   0x elapsed=0:00:08.07    \nframe=    1 fps=0.1 q=31.0 size=       1KiB time=00:00:00.00 bitrate=N/A speed=   0x elapsed=0:00:08.58    \nframe=    1 fps=0.1 q=31.0 size=       1KiB time=00:00:00.00 bitrate=N/A speed=   0x elapsed=0:00:09.09    \nframe=    2 fps=0.2 q=54.0 size=       1KiB time=00:00:00.01 bitrate= 341.8kbits/s speed=0.00173x elapsed=0:00:09.61    \nframe=    7 fps=0.7 q=50.0 size=       1KiB time=00:00:00.10 bitrate=  57.0kbits/s speed=0.00988x elapsed=0:00:10.12    \nframe=    9 fps=0.8 q=47.0 size=       1KiB time=00:00:00.13 bitrate=  42.7kbits/s speed=0.0125x elapsed=0:00:10.63    \nframe=   13 fps=1.2 q=48.0 size=       1KiB time=00:00:00.20 bitrate=  28.5kbits/s speed=0.0179x elapsed=0:00:11.15    \nframe=   16 fps=1.4 q=51.0 size=       1KiB time=00:00:00.25 bitrate=  22.8kbits/s speed=0.0214x elapsed=0:00:11.66    \nframe=   18 fps=1.5 q=48.0 size=       1KiB time=00:00:00.28 bitrate=  20.1kbits/s speed=0.0232x elapsed=0:00:12.18    \nframe=   20 fps=1.6 q=48.0 size=       1KiB time=00:00:00.31 bitrate=  18.0kbits/s speed=0.0249x elapsed=0:00:12.70    \nframe=   22 fps=1.7 q=47.0 size=       1KiB time=00:00:00.35 bitrate=  16.3kbits/s speed=0.0265x elapsed=0:00:13.21    \nframe=   25 fps=1.8 q=47.0 size=       1KiB time=00:00:00.40 bitrate=  14.2kbits/s speed=0.0291x elapsed=0:00:13.73    \nframe=   26 fps=1.8 q=47.0 size=       1KiB time=00:00:00.41 bitrate=  13.7kbits/s speed=0.0292x elapsed=0:00:14.25    \nframe=   28 fps=1.9 q=48.0 size=       1KiB time=00:00:00.45 bitrate=  12.7kbits/s speed=0.0305x elapsed=0:00:14.76    \nframe=   31 fps=2.0 q=49.0 size=       1KiB time=00:00:00.50 bitrate=  11.4kbits/s speed=0.0327x elapsed=0:00:15.27    \nframe=   34 fps=2.2 q=51.0 size=       1KiB time=00:00:00.55 bitrate=  10.4kbits/s speed=0.0348x elapsed=0:00:15.80    \nframe=   36 fps=2.2 q=51.0 size=       1KiB time=00:00:00.58 bitrate=   9.8kbits/s speed=0.0357x elapsed=0:00:16.31    \nframe=   39 fps=2.3 q=47.0 size=       1KiB time=00:00:00.63 bitrate=   9.0kbits/s speed=0.0376x elapsed=0:00:16.83    \nframe=   40 fps=2.3 q=52.0 size=       1KiB time=00:00:00.65 bitrate=   8.8kbits/s speed=0.0375x elapsed=0:00:17.34    \nframe=   42 fps=2.4 q=52.0 size=       1KiB time=00:00:00.68 bitrate=   8.3kbits/s speed=0.0383x elapsed=0:00:17.85    \nframe=   44 fps=2.4 q=52.0 size=       1KiB time=00:00:00.71 bitrate=   7.9kbits/s speed=0.039x elapsed=0:00:18.37    \nframe=   47 fps=2.5 q=49.0 size=       1KiB time=00:00:00.76 bitrate=   7.4kbits/s speed=0.0406x elapsed=0:00:18.89    \nframe=   50 fps=2.6 q=52.0 size=       1KiB time=00:00:00.81 bitrate=   7.0kbits/s speed=0.0421x elapsed=0:00:19.40    \nframe=   51 fps=2.6 q=50.0 size=       1KiB time=00:00:00.83 bitrate=   6.8kbits/s speed=0.0418x elapsed=0:00:19.92    \nframe=   53 fps=2.6 q=48.0 size=       1KiB time=00:00:00.86 bitrate=   6.6kbits/s speed=0.0424x elapsed=0:00:20.43    \nframe=   56 fps=2.7 q=50.0 size=       1KiB time=00:00:00.91 bitrate=   6.2kbits/s speed=0.0438x elapsed=0:00:20.95    \nframe=   58 fps=2.7 q=50.0 size=       1KiB time=00:00:00.95 bitrate=   6.0kbits/s speed=0.0443x elapsed=0:00:21.46    \nframe=   59 fps=2.7 q=49.0 size=       1KiB time=00:00:00.96 bitrate=   5.9kbits/s speed=0.044x elapsed=0:00:21.98    \nframe=   63 fps=2.8 q=49.0 size=       1KiB time=00:00:01.03 bitrate=   5.5kbits/s speed=0.0459x elapsed=0:00:22.50    \nframe=   65 fps=2.8 q=31.0 size=       1KiB time=00:00:01.06 bitrate=   5.3kbits/s speed=0.0463x elapsed=0:00:23.02    \nframe=   68 fps=2.9 q=50.0 size=       1KiB time=00:00:01.11 bitrate=   5.1kbits/s speed=0.0474x elapsed=0:00:23.53    \nframe=   70 fps=2.9 q=50.0 size=       1KiB time=00:00:01.15 bitrate=   5.0kbits/s speed=0.0478x elapsed=0:00:24.04    \nframe=   73 fps=3.0 q=45.0 size=       1KiB time=00:00:01.20 bitrate=   4.7kbits/s speed=0.0488x elapsed=0:00:24.56    \nframe=   74 fps=3.0 q=50.0 size=       1KiB time=00:00:01.21 bitrate=   4.7kbits/s speed=0.0485x elapsed=0:00:25.07    \nframe=   78 fps=3.0 q=49.0 size=       1KiB time=00:00:01.28 bitrate=   4.4kbits/s speed=0.0501x elapsed=0:00:25.59    \nframe=   83 fps=3.2 q=49.0 size=       1KiB time=00:00:01.36 bitrate=   4.2kbits/s speed=0.0524x elapsed=0:00:26.10    \nframe=   85 fps=3.2 q=48.0 size=       1KiB time=00:00:01.40 bitrate=   4.1kbits/s speed=0.0526x elapsed=0:00:26.62    \nframe=   86 fps=3.2 q=47.0 size=       1KiB time=00:00:01.41 bitrate=   4.0kbits/s speed=0.0522x elapsed=0:00:27.14    \nframe=   89 fps=3.2 q=43.0 size=       1KiB time=00:00:01.46 bitrate=   3.9kbits/s speed=0.053x elapsed=0:00:27.65    \nframe=   90 fps=3.2 q=49.0 size=       1KiB time=00:00:01.48 bitrate=   3.8kbits/s speed=0.0527x elapsed=0:00:28.16    \nframe=   93 fps=3.2 q=46.0 size=       1KiB time=00:00:01.53 bitrate=   3.7kbits/s speed=0.0535x elapsed=0:00:28.68    \nframe=   97 fps=3.3 q=31.0 size=       1KiB time=00:00:01.60 bitrate=   3.6kbits/s speed=0.0548x elapsed=0:00:29.20    \nframe=  100 fps=3.4 q=51.0 size=       1KiB time=00:00:01.65 bitrate=   3.5kbits/s speed=0.0555x elapsed=0:00:29.72    \nframe=  102 fps=3.4 q=51.0 size=       1KiB time=00:00:01.68 bitrate=   3.4kbits/s speed=0.0556x elapsed=0:00:30.25    \nframe=  106 fps=3.4 q=51.0 size=       1KiB time=00:00:01.75 bitrate=   3.3kbits/s speed=0.0569x elapsed=0:00:30.77    \nframe=  110 fps=3.5 q=50.0 size=       1KiB time=00:00:01.81 bitrate=   3.1kbits/s speed=0.0581x elapsed=0:00:31.27    \nframe=  114 fps=3.6 q=50.0 size=       1KiB time=00:00:01.88 bitrate=   3.0kbits/s speed=0.0592x elapsed=0:00:31.79    \nframe=  117 fps=3.6 q=48.0 size=       1KiB time=00:00:01.93 bitrate=   2.9kbits/s speed=0.0598x elapsed=0:00:32.32    \nframe=  120 fps=3.7 q=50.0 size=       1KiB time=00:00:01.98 bitrate=   2.9kbits/s speed=0.0604x elapsed=0:00:32.82    \nframe=  123 fps=3.7 q=50.0 size=       1KiB time=00:00:02.03 bitrate=   2.8kbits/s speed=0.061x elapsed=0:00:33.35    \nframe=  130 fps=3.8 q=52.0 size=       1KiB time=00:00:02.15 bitrate=   2.6kbits/s speed=0.0635x elapsed=0:00:33.86    \nframe=  133 fps=3.9 q=49.0 size=       1KiB time=00:00:02.20 bitrate=   2.6kbits/s speed=0.064x elapsed=0:00:34.38    \nframe=  137 fps=3.9 q=44.0 size=       1KiB time=00:00:02.26 bitrate=   2.5kbits/s speed=0.0649x elapsed=0:00:34.90    \nframe=  139 fps=3.9 q=50.0 size=       1KiB time=00:00:02.30 bitrate=   2.5kbits/s speed=0.0649x elapsed=0:00:35.43    \nframe=  143 fps=4.0 q=49.0 size=       1KiB time=00:00:02.36 bitrate=   2.4kbits/s speed=0.0659x elapsed=0:00:35.93    \nframe=  146 fps=4.0 q=52.0 size=       1KiB time=00:00:02.41 bitrate=   2.4kbits/s speed=0.0663x elapsed=0:00:36.45    \nframe=  150 fps=4.1 q=50.0 size=       1KiB time=00:00:02.48 bitrate=   2.3kbits/s speed=0.0672x elapsed=0:00:36.97    \nframe=  153 fps=4.1 q=45.0 size=       1KiB time=00:00:02.53 bitrate=   2.2kbits/s speed=0.0676x elapsed=0:00:37.47    \nframe=  154 fps=4.1 q=52.0 size=       1KiB time=00:00:02.55 bitrate=   2.2kbits/s speed=0.0671x elapsed=0:00:37.99    \nframe=  158 fps=4.1 q=52.0 size=       1KiB time=00:00:02.61 bitrate=   2.2kbits/s speed=0.0679x elapsed=0:00:38.51    \nframe=  161 fps=4.1 q=37.0 size=       1KiB time=00:00:02.66 bitrate=   2.1kbits/s speed=0.0683x elapsed=0:00:39.03    \nframe=  164 fps=4.1 q=53.0 size=       1KiB time=00:00:02.71 bitrate=   2.1kbits/s speed=0.0687x elapsed=0:00:39.54    \nframe=  167 fps=4.2 q=51.0 size=       1KiB time=00:00:02.76 bitrate=   2.1kbits/s speed=0.0691x elapsed=0:00:40.06    \nframe=  170 fps=4.2 q=53.0 size=       1KiB time=00:00:02.81 bitrate=   2.0kbits/s speed=0.0694x elapsed=0:00:40.57    \nframe=  175 fps=4.3 q=50.0 size=       1KiB time=00:00:02.90 bitrate=   2.0kbits/s speed=0.0706x elapsed=0:00:41.09    \nframe=  178 fps=4.3 q=53.0 size=       1KiB time=00:00:02.95 bitrate=   1.9kbits/s speed=0.0709x elapsed=0:00:41.60    \nframe=  182 fps=4.3 q=53.0 size=       1KiB time=00:00:03.01 bitrate=   1.9kbits/s speed=0.0716x elapsed=0:00:42.12    \nframe=  185 fps=4.3 q=46.0 size=       1KiB time=00:00:03.06 bitrate=   1.9kbits/s speed=0.0719x elapsed=0:00:42.64    \nframe=  186 fps=4.3 q=53.0 size=       1KiB time=00:00:03.08 bitrate=   1.8kbits/s speed=0.0714x elapsed=0:00:43.15    \nframe=  191 fps=4.4 q=50.0 size=       1KiB time=00:00:03.16 bitrate=   1.8kbits/s speed=0.0725x elapsed=0:00:43.67    \nframe=  194 fps=4.4 q=53.0 size=       1KiB time=00:00:03.21 bitrate=   1.8kbits/s speed=0.0728x elapsed=0:00:44.18    \nframe=  197 fps=4.4 q=50.0 size=       1KiB time=00:00:03.26 bitrate=   1.7kbits/s speed=0.0731x elapsed=0:00:44.70    \nframe=  198 fps=4.4 q=53.0 size=       1KiB time=00:00:03.28 bitrate=   1.7kbits/s speed=0.0726x elapsed=0:00:45.21    \nframe=  205 fps=4.5 q=47.0 size=       1KiB time=00:00:03.40 bitrate=   1.7kbits/s speed=0.0743x elapsed=0:00:45.73    \nframe=  205 fps=4.4 q=47.0 size=       1KiB time=00:00:03.40 bitrate=   1.7kbits/s speed=0.0735x elapsed=0:00:46.24    \nframe=  211 fps=4.5 q=51.0 size=       1KiB time=00:00:03.50 bitrate=   1.6kbits/s speed=0.0748x elapsed=0:00:46.76    \nframe=  213 fps=4.5 q=49.0 size=       1KiB time=00:00:03.53 bitrate=   1.6kbits/s speed=0.0747x elapsed=0:00:47.28    \nframe=  217 fps=4.5 q=45.0 size=       1KiB time=00:00:03.60 bitrate=   1.6kbits/s speed=0.0753x elapsed=0:00:47.79    \nframe=  217 fps=4.5 q=45.0 size=       1KiB time=00:00:03.60 bitrate=   1.6kbits/s speed=0.0745x elapsed=0:00:48.31    \nframe=  221 fps=4.5 q=47.0 size=       1KiB time=00:00:03.66 bitrate=   1.6kbits/s speed=0.0751x elapsed=0:00:48.82    \nframe=  223 fps=4.5 q=49.0 size=       1KiB time=00:00:03.70 bitrate=   1.5kbits/s speed=0.075x elapsed=0:00:49.34    \nframe=  229 fps=4.6 q=47.0 size=       1KiB time=00:00:03.80 bitrate=   1.5kbits/s speed=0.0762x elapsed=0:00:49.86    \nframe=  233 fps=4.6 q=45.0 size=       1KiB time=00:00:03.86 bitrate=   1.5kbits/s speed=0.0768x elapsed=0:00:50.37    \nframe=  237 fps=4.7 q=47.0 size=       1KiB time=00:00:03.93 bitrate=   1.4kbits/s speed=0.0773x elapsed=0:00:50.89    \nframe=  237 fps=4.6 q=47.0 size=       1KiB time=00:00:03.93 bitrate=   1.4kbits/s speed=0.0765x elapsed=0:00:51.40    \nframe=  241 fps=4.6 q=36.0 size=       1KiB time=00:00:04.00 bitrate=   1.4kbits/s speed=0.077x elapsed=0:00:51.92    \nframe=  245 fps=4.7 q=49.0 size=       1KiB time=00:00:04.06 bitrate=   1.4kbits/s speed=0.0776x elapsed=0:00:52.43    \nframe=  249 fps=4.7 q=45.0 size=       1KiB time=00:00:04.13 bitrate=   1.4kbits/s speed=0.078x elapsed=0:00:52.95    \nframe=  251 fps=4.7 q=50.0 size=       1KiB time=00:00:04.16 bitrate=   1.4kbits/s speed=0.0779x elapsed=0:00:53.46    \nframe=  257 fps=4.8 q=37.0 size=       1KiB time=00:00:04.26 bitrate=   1.3kbits/s speed=0.079x elapsed=0:00:53.98    \nframe=  259 fps=4.8 q=52.0 size=       1KiB time=00:00:04.30 bitrate=   1.3kbits/s speed=0.0789x elapsed=0:00:54.50    \nframe=  263 fps=4.8 q=47.0 size=       1KiB time=00:00:04.36 bitrate=   1.3kbits/s speed=0.0794x elapsed=0:00:55.01    \nframe=  265 fps=4.8 q=46.0 size=       1KiB time=00:00:04.40 bitrate=   1.3kbits/s speed=0.0792x elapsed=0:00:55.53    \nframe=  269 fps=4.8 q=46.0 size=       1KiB time=00:00:04.46 bitrate=   1.3kbits/s speed=0.0797x elapsed=0:00:56.04    \nframe=  275 fps=4.9 q=52.0 size=       1KiB time=00:00:04.53 bitrate=   1.3kbits/s speed=0.0801x elapsed=0:00:56.56    \nframe=  281 fps=4.9 q=48.0 size=       1KiB time=00:00:04.66 bitrate=   1.2kbits/s speed=0.0817x elapsed=0:00:57.10    \nframe=  281 fps=4.9 q=48.0 size=       1KiB time=00:00:04.66 bitrate=   1.2kbits/s speed=0.081x elapsed=0:00:57.64    \nframe=  287 fps=4.9 q=52.0 size=       1KiB time=00:00:04.76 bitrate=   1.2kbits/s speed=0.0819x elapsed=0:00:58.21    \n[out#0/matroska @ 000001e40ec0a0c0] video:617KiB audio:0KiB subtitle:0KiB other streams:0KiB global headers:0KiB muxing overhead: 0.334590%\nframe=  300 fps=5.1 q=52.0 Lsize=     619KiB time=00:00:04.98 bitrate=1017.7kbits/s speed=0.085x elapsed=0:00:58.62    \n",
  "seconds": 62.74598431587219,
  "probe_out": {}
}